# xmcd
#
# Track frame offsets:
#	150
#	12894
#	30932
#	41799
#	54625
#	65801
#	78553
#	94004
#	105386
#	128638
#	140301
#	151439
#	163742
#	182643
#	196800
#	214201
#
# Disc length: 3097 seconds
#
# Revision: 1
# Processed by: cddbd v1.5.2PL0 Copyright (c) Steve Scherf et al.
# Submitted via: audiograbber 1.83.01
#
DISCID=d40c1710
DTITLE=Ruth Hanna - My Gift To You
DYEAR=2009
DGENRE=Gospel
TTITLE0=Angels we have heard on high
TTITLE1=The First Noel
TTITLE2=Mary's Boy Child
TTITLE3=Joy to the World
TTITLE4=O Come All Ye Faithful
TTITLE5=Silent Night
TTITLE6=What Child is This
TTITLE7=Angels from the Realms of Glory
TTITLE8=O Little Town of Bethlehem 
TTITLE9=Go Tell it on the Mountain
TTITLE10=Come on wring Those Bells
TTITLE11=Away in a Manger
TTITLE12=O Holy Night
TTITLE13=Sweet Baby Jesus
TTITLE14=Room for Thee
TTITLE15=Let there be Peace on Earth
EXTD=Christmas Songs
EXTT0=
EXTT1=
EXTT2=
EXTT3=
EXTT4=
EXTT5=
EXTT6=
EXTT7=
EXTT8=
EXTT9=
EXTT10=
EXTT11=
EXTT12=
EXTT13=
EXTT14=
EXTT15=
PLAYORDER=
